<!-- Generated by IcoMoon.io -->
<svg version="1.1" xmlns="http://www.w3.org/2000/svg" width="1024" height="1024" viewBox="0 0 1024 1024">
<title>close</title>
<g id="icomoon-ignore">
</g>
<path fill="#fff" d="M1024 512c0 282.77-229.23 512-512 512s-512-229.23-512-512c0-282.77 229.23-512 512-512s512 229.23 512 512z"></path>
<path fill="none" stroke="#000" stroke-linejoin="miter" stroke-linecap="butt" stroke-miterlimit="4" stroke-width="34.1333" d="M1006.933 512c0 273.344-221.589 494.933-494.933 494.933s-494.933-221.589-494.933-494.933c0-273.344 221.589-494.933 494.933-494.933s494.933 221.589 494.933 494.933z"></path>
<path fill="#000" d="M716.8 345.016l-37.816-37.816-149.917 149.917-149.917-149.917-37.816 37.816 149.917 149.917-149.917 149.917 37.816 37.816 149.917-149.917 149.917 149.917 37.816-37.816-149.917-149.917 149.917-149.917z"></path>
</svg>
